# xmcd CD database file
#
# Track frame offsets:
#	150
#	23464
#	40027
#	59724
#	73500
#	93751
#	108231
#	122919
#	147557
#	163108
#	179668
#	198539
#
# Disc length: 2835 seconds
#
# Revision: 2
# Processed by: cddbd v1.5.2PL0 Copyright (c) Steve Scherf et al.
# Submitted via: CDex 1.70beta2
#
DISCID=ab0b110c
DTITLE=Various Artist - More Crucial Guitar Blues
DYEAR=2007
DGENRE=Blues
TTITLE0=Luther Allison - Will it ever change?
TTITLE1=Michael Burks - One more chance
TTITLE2=Roomful of Blues - Love you lost on the way
TTITLE3=Albert Collins - Get to gettin'
TTITLE4=Son Seals - No, no baby
TTITLE5=Little Charlie and the Nightcats - You got your hooks in me
TTITLE6=Lucky Peterson - Don't cloud up on me
TTITLE7=Lonnie Brooks - You know what my body needs
TTITLE8=Long John Hunter - Stop what you're doing
TTITLE9=Kenny Neal - Lightning's gonna strike
TTITLE10=Elvin Bishop - Shady lane
TTITLE11=W.C. Clark - Okie dokee stomp
EXTD=YEAR: 2007
EXTT0=
EXTT1=
EXTT2=
EXTT3=
EXTT4=
EXTT5=
EXTT6=
EXTT7=
EXTT8=
EXTT9=
EXTT10=
EXTT11=
PLAYORDER=
